<svg xmlns="http://www.w3.org/2000/svg" viewBox="0 0 1200 466" width="1200" height="466" role="img" aria-labelledby="t d" font-family="-apple-system, BlinkMacSystemFont, 'Segoe UI', Helvetica, Arial, sans-serif"><title id="t">Instrument inventory</title><desc id="d">Technologies used across the twelve repositories, grouped by role: languages, models, retrieval, services, interface, data and runtime. Language entries show how many repositories use that language as their primary language.</desc><rect x="0" y="0" width="1200" height="466" rx="0" fill="#FFFFFF"/><text x="56" y="44" font-size="10.5" fill="#9C9C95" font-weight="600" font-family="ui-monospace, SFMono-Regular, 'SF Mono', Menlo, Consolas, 'Liberation Mono', monospace" letter-spacing="3.2">INSTRUMENT INVENTORY</text><text x="56" y="68" font-size="13" fill="#63635D" font-weight="400">Everything below appears in at least one repository.</text><line x1="56" y1="84" x2="1144" y2="84" stroke="#E3E3E0" stroke-width="1" stroke-linecap="butt"/><text x="56" y="120.5" font-size="9.5" fill="#63635D" font-weight="600" font-family="ui-monospace, SFMono-Regular, 'SF Mono', Menlo, Consolas, 'Liberation Mono', monospace" letter-spacing="2">LANGUAGES</text><line x1="56" y1="137" x2="1144" y2="137" stroke="#E3E3E0" stroke-width="1" stroke-linecap="butt" opacity="1"/><rect x="206" y="104" width="77.62" height="26" rx="6" fill="#FAFAF9" stroke="#E3E3E0" stroke-width="1"/><text x="216" y="121.38" font-size="12.5" fill="#171715" font-weight="400">Python ·5</text><rect x="291.62" y="104" width="100.19" height="26" rx="6" fill="#FAFAF9" stroke="#E3E3E0" stroke-width="1"/><text x="301.62" y="121.38" font-size="12.5" fill="#171715" font-weight="400">TypeScript ·4</text><rect x="399.81" y="104" width="100.19" height="26" rx="6" fill="#FAFAF9" stroke="#E3E3E0" stroke-width="1"/><text x="409.81" y="121.38" font-size="12.5" fill="#171715" font-weight="400">JavaScript ·2</text><rect x="508" y="104" width="53.63" height="26" rx="6" fill="#FAFAF9" stroke="#E3E3E0" stroke-width="1"/><text x="518" y="121.38" font-size="12.5" fill="#171715" font-weight="400">Go ·1</text><rect x="569.62" y="104" width="49.31" height="26" rx="6" fill="#FAFAF9" stroke="#E3E3E0" stroke-width="1"/><text x="579.62" y="121.38" font-size="12.5" fill="#171715" font-weight="400">Shell</text><rect x="626.94" y="104" width="58.44" height="26" rx="6" fill="#FAFAF9" stroke="#E3E3E0" stroke-width="1"/><text x="636.94" y="121.38" font-size="12.5" fill="#171715" font-weight="400">LaTeX</text><text x="56" y="162.5" font-size="9.5" fill="#63635D" font-weight="600" font-family="ui-monospace, SFMono-Regular, 'SF Mono', Menlo, Consolas, 'Liberation Mono', monospace" letter-spacing="2">MODELS</text><line x1="56" y1="215" x2="1144" y2="215" stroke="#E3E3E0" stroke-width="1" stroke-linecap="butt" opacity="1"/><rect x="206" y="146" width="45.56" height="26" rx="6" fill="#FAFAF9" stroke="#E3E3E0" stroke-width="1"/><text x="216" y="163.38" font-size="12.5" fill="#171715" font-weight="400">Groq</text><rect x="259.56" y="146" width="80.44" height="26" rx="6" fill="#FAFAF9" stroke="#E3E3E0" stroke-width="1"/><text x="269.56" y="163.38" font-size="12.5" fill="#171715" font-weight="400">Llama 3.1</text><rect x="348" y="146" width="120" height="26" rx="6" fill="#FAFAF9" stroke="#E3E3E0" stroke-width="1"/><text x="358" y="163.38" font-size="12.5" fill="#171715" font-weight="400">Llama 3.2 Vision</text><rect x="476" y="146" width="108.88" height="26" rx="6" fill="#FAFAF9" stroke="#E3E3E0" stroke-width="1"/><text x="486" y="163.38" font-size="12.5" fill="#171715" font-weight="400">Llama 3.3 70B</text><rect x="592.88" y="146" width="99.88" height="26" rx="6" fill="#FAFAF9" stroke="#E3E3E0" stroke-width="1"/><text x="602.88" y="163.38" font-size="12.5" fill="#171715" font-weight="400">Gemini Vision</text><rect x="700.75" y="146" width="59.06" height="26" rx="6" fill="#FAFAF9" stroke="#E3E3E0" stroke-width="1"/><text x="710.75" y="163.38" font-size="12.5" fill="#171715" font-weight="400">Claude</text><rect x="767.81" y="146" width="60.62" height="26" rx="6" fill="#FAFAF9" stroke="#E3E3E0" stroke-width="1"/><text x="777.81" y="163.38" font-size="12.5" fill="#171715" font-weight="400">OpenAI</text><rect x="836.44" y="146" width="52.81" height="26" rx="6" fill="#FAFAF9" stroke="#E3E3E0" stroke-width="1"/><text x="846.44" y="163.38" font-size="12.5" fill="#171715" font-weight="400">Qwen</text><rect x="897.25" y="146" width="60.31" height="26" rx="6" fill="#FAFAF9" stroke="#E3E3E0" stroke-width="1"/><text x="907.25" y="163.38" font-size="12.5" fill="#171715" font-weight="400">Ollama</text><rect x="965.56" y="146" width="68.31" height="26" rx="6" fill="#FAFAF9" stroke="#E3E3E0" stroke-width="1"/><text x="975.56" y="163.38" font-size="12.5" fill="#171715" font-weight="400">YOLOv8</text><rect x="1041.88" y="146" width="65.5" height="26" rx="6" fill="#FAFAF9" stroke="#E3E3E0" stroke-width="1"/><text x="1051.88" y="163.38" font-size="12.5" fill="#171715" font-weight="400">Whisper</text><rect x="206" y="182" width="62.81" height="26" rx="6" fill="#FAFAF9" stroke="#E3E3E0" stroke-width="1"/><text x="216" y="199.38" font-size="12.5" fill="#171715" font-weight="400">Prophet</text><text x="56" y="240.5" font-size="9.5" fill="#63635D" font-weight="600" font-family="ui-monospace, SFMono-Regular, 'SF Mono', Menlo, Consolas, 'Liberation Mono', monospace" letter-spacing="2">RETRIEVAL</text><line x1="56" y1="257" x2="1144" y2="257" stroke="#E3E3E0" stroke-width="1" stroke-linecap="butt" opacity="1"/><rect x="206" y="224" width="79.94" height="26" rx="6" fill="#FAFAF9" stroke="#E3E3E0" stroke-width="1"/><text x="216" y="241.38" font-size="12.5" fill="#171715" font-weight="400">ChromaDB</text><rect x="293.94" y="224" width="80.88" height="26" rx="6" fill="#FAFAF9" stroke="#E3E3E0" stroke-width="1"/><text x="303.94" y="241.38" font-size="12.5" fill="#171715" font-weight="400">LangChain</text><rect x="382.81" y="224" width="80.88" height="26" rx="6" fill="#FAFAF9" stroke="#E3E3E0" stroke-width="1"/><text x="392.81" y="241.38" font-size="12.5" fill="#171715" font-weight="400">LangGraph</text><rect x="471.69" y="224" width="121.75" height="26" rx="6" fill="#FAFAF9" stroke="#E3E3E0" stroke-width="1"/><text x="481.69" y="241.38" font-size="12.5" fill="#171715" font-weight="400">all-MiniLM-L6-v2</text><text x="56" y="282.5" font-size="9.5" fill="#63635D" font-weight="600" font-family="ui-monospace, SFMono-Regular, 'SF Mono', Menlo, Consolas, 'Liberation Mono', monospace" letter-spacing="2">SERVICES</text><line x1="56" y1="299" x2="1144" y2="299" stroke="#E3E3E0" stroke-width="1" stroke-linecap="butt" opacity="1"/><rect x="206" y="266" width="65.94" height="26" rx="6" fill="#FAFAF9" stroke="#E3E3E0" stroke-width="1"/><text x="216" y="283.38" font-size="12.5" fill="#171715" font-weight="400">FastAPI</text><rect x="279.94" y="266" width="65.81" height="26" rx="6" fill="#FAFAF9" stroke="#E3E3E0" stroke-width="1"/><text x="289.94" y="283.38" font-size="12.5" fill="#171715" font-weight="400">Express</text><rect x="353.75" y="266" width="52.31" height="26" rx="6" fill="#FAFAF9" stroke="#E3E3E0" stroke-width="1"/><text x="363.75" y="283.38" font-size="12.5" fill="#171715" font-weight="400">Flask</text><rect x="414.06" y="266" width="71.56" height="26" rx="6" fill="#FAFAF9" stroke="#E3E3E0" stroke-width="1"/><text x="424.06" y="283.38" font-size="12.5" fill="#171715" font-weight="400">Streamlit</text><rect x="493.62" y="266" width="70.06" height="26" rx="6" fill="#FAFAF9" stroke="#E3E3E0" stroke-width="1"/><text x="503.62" y="283.38" font-size="12.5" fill="#171715" font-weight="400">Go stdlib</text><rect x="571.69" y="266" width="79.94" height="26" rx="6" fill="#FAFAF9" stroke="#E3E3E0" stroke-width="1"/><text x="581.69" y="283.38" font-size="12.5" fill="#171715" font-weight="400">Next.js 16</text><text x="56" y="324.5" font-size="9.5" fill="#63635D" font-weight="600" font-family="ui-monospace, SFMono-Regular, 'SF Mono', Menlo, Consolas, 'Liberation Mono', monospace" letter-spacing="2">INTERFACE</text><line x1="56" y1="341" x2="1144" y2="341" stroke="#E3E3E0" stroke-width="1" stroke-linecap="butt" opacity="1"/><rect x="206" y="308" width="72.44" height="26" rx="6" fill="#FAFAF9" stroke="#E3E3E0" stroke-width="1"/><text x="216" y="325.38" font-size="12.5" fill="#171715" font-weight="400">React 19</text><rect x="286.44" y="308" width="42.56" height="26" rx="6" fill="#FAFAF9" stroke="#E3E3E0" stroke-width="1"/><text x="296.44" y="325.38" font-size="12.5" fill="#171715" font-weight="400">Vite</text><rect x="337" y="308" width="70.81" height="26" rx="6" fill="#FAFAF9" stroke="#E3E3E0" stroke-width="1"/><text x="347" y="325.38" font-size="12.5" fill="#171715" font-weight="400">Tailwind</text><rect x="415.81" y="308" width="66.56" height="26" rx="6" fill="#FAFAF9" stroke="#E3E3E0" stroke-width="1"/><text x="425.81" y="325.38" font-size="12.5" fill="#171715" font-weight="400">Three.js</text><rect x="490.38" y="308" width="59.81" height="26" rx="6" fill="#FAFAF9" stroke="#E3E3E0" stroke-width="1"/><text x="500.38" y="325.38" font-size="12.5" fill="#171715" font-weight="400">Leaflet</text><rect x="558.19" y="308" width="69.56" height="26" rx="6" fill="#FAFAF9" stroke="#E3E3E0" stroke-width="1"/><text x="568.19" y="325.38" font-size="12.5" fill="#171715" font-weight="400">Recharts</text><rect x="635.75" y="308" width="102.56" height="26" rx="6" fill="#FAFAF9" stroke="#E3E3E0" stroke-width="1"/><text x="645.75" y="325.38" font-size="12.5" fill="#171715" font-weight="400">Framer Motion</text><text x="56" y="366.5" font-size="9.5" fill="#63635D" font-weight="600" font-family="ui-monospace, SFMono-Regular, 'SF Mono', Menlo, Consolas, 'Liberation Mono', monospace" letter-spacing="2">DATA</text><line x1="56" y1="383" x2="1144" y2="383" stroke="#E3E3E0" stroke-width="1" stroke-linecap="butt" opacity="1"/><rect x="206" y="350" width="87.75" height="26" rx="6" fill="#FAFAF9" stroke="#E3E3E0" stroke-width="1"/><text x="216" y="367.38" font-size="12.5" fill="#171715" font-weight="400">PostgreSQL</text><rect x="301.75" y="350" width="74.62" height="26" rx="6" fill="#FAFAF9" stroke="#E3E3E0" stroke-width="1"/><text x="311.75" y="367.38" font-size="12.5" fill="#171715" font-weight="400">MongoDB</text><rect x="384.38" y="350" width="90.31" height="26" rx="6" fill="#FAFAF9" stroke="#E3E3E0" stroke-width="1"/><text x="394.38" y="367.38" font-size="12.5" fill="#171715" font-weight="400">SQLite WAL</text><rect x="482.69" y="350" width="79.94" height="26" rx="6" fill="#FAFAF9" stroke="#E3E3E0" stroke-width="1"/><text x="492.69" y="367.38" font-size="12.5" fill="#171715" font-weight="400">SQLModel</text><rect x="570.62" y="350" width="67.06" height="26" rx="6" fill="#FAFAF9" stroke="#E3E3E0" stroke-width="1"/><text x="580.62" y="367.38" font-size="12.5" fill="#171715" font-weight="400">Alembic</text><rect x="645.69" y="350" width="36.62" height="26" rx="6" fill="#FAFAF9" stroke="#E3E3E0" stroke-width="1"/><text x="655.69" y="367.38" font-size="12.5" fill="#171715" font-weight="400">S3</text><text x="56" y="408.5" font-size="9.5" fill="#63635D" font-weight="600" font-family="ui-monospace, SFMono-Regular, 'SF Mono', Menlo, Consolas, 'Liberation Mono', monospace" letter-spacing="2">RUNTIME</text><line x1="56" y1="425" x2="1144" y2="425" stroke="#E3E3E0" stroke-width="1" stroke-linecap="butt" opacity="0"/><rect x="206" y="392" width="59.06" height="26" rx="6" fill="#FAFAF9" stroke="#E3E3E0" stroke-width="1"/><text x="216" y="409.38" font-size="12.5" fill="#171715" font-weight="400">Docker</text><rect x="273.06" y="392" width="41.81" height="26" rx="6" fill="#FAFAF9" stroke="#E3E3E0" stroke-width="1"/><text x="283.06" y="409.38" font-size="12.5" fill="#171715" font-weight="400">k3s</text><rect x="322.88" y="392" width="52.31" height="26" rx="6" fill="#FAFAF9" stroke="#E3E3E0" stroke-width="1"/><text x="332.88" y="409.38" font-size="12.5" fill="#171715" font-weight="400">Nginx</text><rect x="383.19" y="392" width="106.12" height="26" rx="6" fill="#FAFAF9" stroke="#E3E3E0" stroke-width="1"/><text x="393.19" y="409.38" font-size="12.5" fill="#171715" font-weight="400">OpenTelemetry</text><rect x="497.31" y="392" width="41.81" height="26" rx="6" fill="#FAFAF9" stroke="#E3E3E0" stroke-width="1"/><text x="507.31" y="409.38" font-size="12.5" fill="#171715" font-weight="400">n8n</text><rect x="547.12" y="392" width="100.56" height="26" rx="6" fill="#FAFAF9" stroke="#E3E3E0" stroke-width="1"/><text x="557.12" y="409.38" font-size="12.5" fill="#171715" font-weight="400">SUMO / TraCI</text><rect x="655.69" y="392" width="103.94" height="26" rx="6" fill="#FAFAF9" stroke="#E3E3E0" stroke-width="1"/><text x="665.69" y="409.38" font-size="12.5" fill="#171715" font-weight="400">GitHub Actions</text></svg>
