<svg xmlns="http://www.w3.org/2000/svg" viewBox="0 0 1200 128" width="1200" height="128" role="img" aria-labelledby="t d" font-family="-apple-system, BlinkMacSystemFont, 'Segoe UI', Helvetica, Arial, sans-serif"><title id="t">EXP-08 SETRS</title><desc id="d">Specimen plate for experiment 8, SETRS. Division: Systems and Simulation. Primary language: Python. Emblem: an intersection with a preempted corridor through it. Pipeline: Trajectory, then Predict, then Preempt, then SUMO, then Corridor.</desc><style>.fu{animation:fu .75s cubic-bezier(.16,.84,.44,1) both}@keyframes fu{from{opacity:0;transform:translateY(8px)}to{opacity:1;transform:translateY(0)}}.fi{animation:fi .9s ease both}@keyframes fi{from{opacity:0}to{opacity:1}}.dr{animation:dr 1.5s cubic-bezier(.4,0,.2,1) both}@keyframes dr{from{stroke-dashoffset:var(--L)}to{stroke-dashoffset:0}}.pu{transform-box:fill-box;transform-origin:center;animation:pu 3.4s ease-in-out infinite}@keyframes pu{0%,100%{opacity:.14;transform:scale(1)}50%{opacity:.42;transform:scale(1.85)}}@media(prefers-reduced-motion:reduce){.fu,.fi,.dr,.pu{animation:none!important}}</style><rect x="0" y="0" width="1200" height="128" rx="0" fill="#0C0C0B"/><rect x="1" y="1" width="1198" height="126" rx="10" fill="#131312" stroke="#282826" stroke-width="1"/><rect x="1" y="1" width="4" height="126" rx="2" fill="#A796D8"/><rect x="3" y="1" width="2" height="126" rx="0" fill="#A796D8"/><g class="fi" style="animation-delay:0.05s"><g transform="translate(24,22)"><rect x="30" y="4" width="24" height="76" rx="1" fill="#282826" opacity="0.55"/><rect x="4" y="30" width="76" height="24" rx="1" fill="#282826" opacity="0.55"/><line x1="42" y1="4" x2="42" y2="80" stroke="#37372F" stroke-width="1" stroke-linecap="butt" stroke-dasharray="4 5"/><path d="M4 42 l62 0" fill="none" stroke="#A796D8" stroke-width="2.4" stroke-linecap="round" stroke-linejoin="round"/><path d="M78 42 l-11 -6 l0 12 z" fill="#A796D8" stroke="#A796D8" stroke-width="1" stroke-linecap="round" stroke-linejoin="round"/><circle cx="42" cy="18" r="3.4" fill="#A796D8"/><circle cx="42" cy="66" r="3.4" fill="none" stroke="#6A6A63" stroke-width="1.4"/></g></g><line x1="116" y1="24" x2="116" y2="104" stroke="#282826" stroke-width="1" stroke-linecap="butt"/><text x="130" y="34" font-size="10" fill="#A796D8" font-weight="700" font-family="ui-monospace, SFMono-Regular, 'SF Mono', Menlo, Consolas, 'Liberation Mono', monospace" letter-spacing="2">EXP-08</text><line x1="190.06" y1="22" x2="190.06" y2="36" stroke="#37372F" stroke-width="1" stroke-linecap="butt"/><text x="204.06" y="34" font-size="9" fill="#6A6A63" font-weight="600" font-family="ui-monospace, SFMono-Regular, 'SF Mono', Menlo, Consolas, 'Liberation Mono', monospace" letter-spacing="1.8">SYSTEMS</text><text x="130" y="66" font-size="21" fill="#F4F4F1" font-weight="600">SETRS</text><text x="130" y="88" font-size="12.5" fill="#A0A099" font-weight="400">Emergency corridor orchestration</text><rect x="130" y="100" width="47.25" height="18" rx="9" fill="#1B1B19" stroke="#282826" stroke-width="1"/><text x="138" y="112.5" font-size="10" fill="#6A6A63" font-weight="400">Python</text><rect x="183.25" y="100" width="53.05" height="18" rx="9" fill="#1B1B19" stroke="#282826" stroke-width="1"/><text x="191.25" y="112.5" font-size="10" fill="#6A6A63" font-weight="400">9 topics</text><text x="560" y="34" font-size="8.5" fill="#6A6A63" font-weight="600" font-family="ui-monospace, SFMono-Regular, 'SF Mono', Menlo, Consolas, 'Liberation Mono', monospace" letter-spacing="1.8">PIPELINE</text><rect x="560" y="52" width="67.65" height="24" rx="5" fill="#0C0C0B" stroke="#282826" stroke-width="1"/><text x="593.83" y="67.5" font-size="10" fill="#F4F4F1" font-weight="400" text-anchor="middle">Trajectory</text><line x1="630.65" y1="64" x2="701.46" y2="64" stroke="#37372F" stroke-width="1" stroke-linecap="butt"/><path d="M700.46 60.8 l4 3.2 l-4 3.2" fill="none" stroke="#A796D8" stroke-width="1.3" stroke-linecap="round" stroke-linejoin="round"/><rect x="708.46" y="52" width="53.85" height="24" rx="5" fill="#0C0C0B" stroke="#282826" stroke-width="1"/><text x="735.39" y="67.5" font-size="10" fill="#F4F4F1" font-weight="400" text-anchor="middle">Predict</text><line x1="765.31" y1="64" x2="836.12" y2="64" stroke="#37372F" stroke-width="1" stroke-linecap="butt"/><path d="M835.12 60.8 l4 3.2 l-4 3.2" fill="none" stroke="#A796D8" stroke-width="1.3" stroke-linecap="round" stroke-linejoin="round"/><rect x="843.12" y="52" width="59.65" height="24" rx="5" fill="#0C0C0B" stroke="#282826" stroke-width="1"/><text x="872.95" y="67.5" font-size="10" fill="#F4F4F1" font-weight="400" text-anchor="middle">Preempt</text><line x1="905.77" y1="64" x2="976.59" y2="64" stroke="#37372F" stroke-width="1" stroke-linecap="butt"/><path d="M975.59 60.8 l4 3.2 l-4 3.2" fill="none" stroke="#A796D8" stroke-width="1.3" stroke-linecap="round" stroke-linejoin="round"/><rect x="983.59" y="52" width="50.75" height="24" rx="5" fill="#0C0C0B" stroke="#282826" stroke-width="1"/><text x="1008.96" y="67.5" font-size="10" fill="#F4F4F1" font-weight="400" text-anchor="middle">SUMO</text><line x1="1037.34" y1="64" x2="1108.15" y2="64" stroke="#37372F" stroke-width="1" stroke-linecap="butt"/><path d="M1107.15 60.8 l4 3.2 l-4 3.2" fill="none" stroke="#A796D8" stroke-width="1.3" stroke-linecap="round" stroke-linejoin="round"/><rect x="1115.15" y="52" width="56.85" height="24" rx="5" fill="#0C0C0B" stroke="#282826" stroke-width="1"/><text x="1143.58" y="67.5" font-size="10" fill="#F4F4F1" font-weight="400" text-anchor="middle">Corridor</text><circle cx="551" cy="64" r="2.4" fill="#A796D8"/><line x1="1186" y1="12" x2="1179" y2="12" stroke="#37372F" stroke-width="1" stroke-linecap="butt" opacity="0.7"/><line x1="1186" y1="12" x2="1186" y2="19" stroke="#37372F" stroke-width="1" stroke-linecap="butt" opacity="0.7"/><line x1="1186" y1="116" x2="1179" y2="116" stroke="#37372F" stroke-width="1" stroke-linecap="butt" opacity="0.7"/><line x1="1186" y1="116" x2="1186" y2="109" stroke="#37372F" stroke-width="1" stroke-linecap="butt" opacity="0.7"/></svg>
