<svg xmlns="http://www.w3.org/2000/svg" viewBox="0 0 1200 128" width="1200" height="128" role="img" aria-labelledby="t d" font-family="-apple-system, BlinkMacSystemFont, 'Segoe UI', Helvetica, Arial, sans-serif"><title id="t">EXP-02 StudyMind</title><desc id="d">Specimen plate for experiment 2, StudyMind. Division: Grounded Retrieval. Primary language: JavaScript. Emblem: a stack of documents answering in a chat bubble. Pipeline: PDF, then Index, then Retrieve, then Summarise, then Chat.</desc><style>.fu{animation:fu .75s cubic-bezier(.16,.84,.44,1) both}@keyframes fu{from{opacity:0;transform:translateY(8px)}to{opacity:1;transform:translateY(0)}}.fi{animation:fi .9s ease both}@keyframes fi{from{opacity:0}to{opacity:1}}.dr{animation:dr 1.5s cubic-bezier(.4,0,.2,1) both}@keyframes dr{from{stroke-dashoffset:var(--L)}to{stroke-dashoffset:0}}.pu{transform-box:fill-box;transform-origin:center;animation:pu 3.4s ease-in-out infinite}@keyframes pu{0%,100%{opacity:.14;transform:scale(1)}50%{opacity:.42;transform:scale(1.85)}}@media(prefers-reduced-motion:reduce){.fu,.fi,.dr,.pu{animation:none!important}}</style><rect x="0" y="0" width="1200" height="128" rx="0" fill="#0C0C0B"/><rect x="1" y="1" width="1198" height="126" rx="10" fill="#131312" stroke="#282826" stroke-width="1"/><rect x="1" y="1" width="4" height="126" rx="2" fill="#7FBF9C"/><rect x="3" y="1" width="2" height="126" rx="0" fill="#7FBF9C"/><g class="fi" style="animation-delay:0.05s"><g transform="translate(24,22)"><rect x="6" y="8" width="40" height="52" rx="3" fill="none" stroke="#37372F" stroke-width="1.1"/><rect x="11" y="12" width="40" height="52" rx="3" fill="none" stroke="#37372F" stroke-width="1.1"/><rect x="16" y="16" width="40" height="52" rx="3" fill="none" stroke="#37372F" stroke-width="1.1"/><line x1="22" y1="26" x2="46" y2="26" stroke="#282826" stroke-width="1.4" stroke-linecap="butt"/><line x1="22" y1="34" x2="46" y2="34" stroke="#282826" stroke-width="1.4" stroke-linecap="butt"/><line x1="22" y1="42" x2="46" y2="42" stroke="#282826" stroke-width="1.4" stroke-linecap="butt"/><line x1="22" y1="50" x2="46" y2="50" stroke="#282826" stroke-width="1.4" stroke-linecap="butt"/><rect x="44" y="42" width="36" height="26" rx="6" fill="#0C0C0B" stroke="#7FBF9C" stroke-width="1.5"/><path d="M52 68 l0 8 l8 -8" fill="#0C0C0B" stroke="#7FBF9C" stroke-width="1.5" stroke-linecap="round" stroke-linejoin="round"/><line x1="51" y1="51" x2="73" y2="51" stroke="#7FBF9C" stroke-width="1.4" stroke-linecap="butt" opacity="0.55"/><line x1="51" y1="58" x2="73" y2="58" stroke="#7FBF9C" stroke-width="1.4" stroke-linecap="butt" opacity="0.55"/></g></g><line x1="116" y1="24" x2="116" y2="104" stroke="#282826" stroke-width="1" stroke-linecap="butt"/><text x="130" y="34" font-size="10" fill="#7FBF9C" font-weight="700" font-family="ui-monospace, SFMono-Regular, 'SF Mono', Menlo, Consolas, 'Liberation Mono', monospace" letter-spacing="2">EXP-02</text><line x1="190.06" y1="22" x2="190.06" y2="36" stroke="#37372F" stroke-width="1" stroke-linecap="butt"/><text x="204.06" y="34" font-size="9" fill="#6A6A63" font-weight="600" font-family="ui-monospace, SFMono-Regular, 'SF Mono', Menlo, Consolas, 'Liberation Mono', monospace" letter-spacing="1.8">RETRIEVAL</text><text x="130" y="66" font-size="21" fill="#F4F4F1" font-weight="600">StudyMind</text><text x="130" y="88" font-size="12.5" fill="#A0A099" font-weight="400">Study assistant over your own PDFs</text><rect x="130" y="100" width="65.3" height="18" rx="9" fill="#1B1B19" stroke="#282826" stroke-width="1"/><text x="138" y="112.5" font-size="10" fill="#6A6A63" font-weight="400">JavaScript</text><text x="560" y="34" font-size="8.5" fill="#6A6A63" font-weight="600" font-family="ui-monospace, SFMono-Regular, 'SF Mono', Menlo, Consolas, 'Liberation Mono', monospace" letter-spacing="1.8">PIPELINE</text><rect x="560" y="52" width="41.95" height="24" rx="5" fill="#0C0C0B" stroke="#282826" stroke-width="1"/><text x="580.98" y="67.5" font-size="10" fill="#F4F4F1" font-weight="400" text-anchor="middle">PDF</text><line x1="604.95" y1="64" x2="681.93" y2="64" stroke="#37372F" stroke-width="1" stroke-linecap="butt"/><path d="M680.93 60.8 l4 3.2 l-4 3.2" fill="none" stroke="#7FBF9C" stroke-width="1.3" stroke-linecap="round" stroke-linejoin="round"/><rect x="688.92" y="52" width="46.6" height="24" rx="5" fill="#0C0C0B" stroke="#282826" stroke-width="1"/><text x="712.22" y="67.5" font-size="10" fill="#F4F4F1" font-weight="400" text-anchor="middle">Index</text><line x1="738.52" y1="64" x2="815.5" y2="64" stroke="#37372F" stroke-width="1" stroke-linecap="butt"/><path d="M814.5 60.8 l4 3.2 l-4 3.2" fill="none" stroke="#7FBF9C" stroke-width="1.3" stroke-linecap="round" stroke-linejoin="round"/><rect x="822.5" y="52" width="59.25" height="24" rx="5" fill="#0C0C0B" stroke="#282826" stroke-width="1"/><text x="852.12" y="67.5" font-size="10" fill="#F4F4F1" font-weight="400" text-anchor="middle">Retrieve</text><line x1="884.75" y1="64" x2="961.73" y2="64" stroke="#37372F" stroke-width="1" stroke-linecap="butt"/><path d="M960.73 60.8 l4 3.2 l-4 3.2" fill="none" stroke="#7FBF9C" stroke-width="1.3" stroke-linecap="round" stroke-linejoin="round"/><rect x="968.73" y="52" width="73.85" height="24" rx="5" fill="#0C0C0B" stroke="#282826" stroke-width="1"/><text x="1005.65" y="67.5" font-size="10" fill="#F4F4F1" font-weight="400" text-anchor="middle">Summarise</text><line x1="1045.58" y1="64" x2="1122.55" y2="64" stroke="#37372F" stroke-width="1" stroke-linecap="butt"/><path d="M1121.55 60.8 l4 3.2 l-4 3.2" fill="none" stroke="#7FBF9C" stroke-width="1.3" stroke-linecap="round" stroke-linejoin="round"/><rect x="1129.55" y="52" width="42.45" height="24" rx="5" fill="#0C0C0B" stroke="#282826" stroke-width="1"/><text x="1150.77" y="67.5" font-size="10" fill="#F4F4F1" font-weight="400" text-anchor="middle">Chat</text><circle cx="551" cy="64" r="2.4" fill="#7FBF9C"/><line x1="1186" y1="12" x2="1179" y2="12" stroke="#37372F" stroke-width="1" stroke-linecap="butt" opacity="0.7"/><line x1="1186" y1="12" x2="1186" y2="19" stroke="#37372F" stroke-width="1" stroke-linecap="butt" opacity="0.7"/><line x1="1186" y1="116" x2="1179" y2="116" stroke="#37372F" stroke-width="1" stroke-linecap="butt" opacity="0.7"/><line x1="1186" y1="116" x2="1186" y2="109" stroke="#37372F" stroke-width="1" stroke-linecap="butt" opacity="0.7"/></svg>
